<?xml version="1.0" encoding="UTF-8" standalone="no"?>
<!DOCTYPE svg PUBLIC "-//W3C//DTD SVG 1.1//EN" "http://www.w3.org/Graphics/SVG/1.1/DTD/svg11.dtd">
<svg version="1.1" xmlns="http://www.w3.org/2000/svg" xmlns:xlink="http://www.w3.org/1999/xlink" preserveAspectRatio="xMidYMid meet" viewBox="0 0 640 640" width="300" height="300"><defs><path d="M620 0C631.05 0 640 8.95 640 20C640 144 640 496 640 620C640 631.05 631.05 640 620 640C496.26 640 145.04 640 21.3 640C10.25 640 1.3 631.05 1.3 620C1.3 496 1.3 144 1.3 20C1.3 8.95 10.25 0 21.3 0C145.04 0 496.26 0 620 0Z" id="cgaySptgH"></path><path d="M3.24 355.14C13.74 451.07 68.13 538.72 149.9 590.66C208.6 628.1 284.51 645.87 353.88 638.28C501.75 622.23 618.11 508.01 637.39 360.15C655.81 217.98 575.25 78.91 442.7 24.22C391.58 3.17 331.67 -4.6 277.97 2.65C106.35 26.11 -15.7 182.61 3.24 355.14ZM583.86 186.4C607.27 232.64 617.25 278.71 615.36 331.33C613.64 376.54 604.68 411.04 584.03 452.97C569.22 482.82 553.9 503.87 528.94 528.89C504.16 553.73 483.15 569.09 453.2 583.93C426.01 597.56 406.9 604.29 378.5 610.33C359.22 614.47 353.02 614.98 321.52 614.98C282.44 615.16 263.34 612.4 230.28 602.04C208.08 594.97 169.18 575.47 149.38 561.32C128.38 546.14 94.81 512.67 80.18 491.79C16.83 402.07 7.71 285.26 56.43 187.95C71.23 158.45 87.76 135.85 112.2 111.35C152.65 70.97 195.69 46.3 250.08 32.84C279.69 25.42 290.71 24.39 327.54 25.08C352.33 25.6 364.38 26.63 377.46 29.39C468.7 48.72 542.2 104.79 583.86 186.4Z" id="c223N4QY7"></path><path d="M200.16 77.87C102.21 126.53 42.48 231.78 51.26 340.3C60.21 450.56 131.65 542.17 235.62 577.03C287.95 594.62 351.64 594.8 404.66 577.37C444.77 564.26 479.02 543.21 509.84 512.84C562.51 460.91 590.05 395 590.05 320.98C590.05 292.17 588.16 275.95 582.31 252.66C556.14 149.13 468.35 68.9 363.69 52.68C342.69 49.58 315.15 48.37 296.9 50.1C262.99 53.37 231.32 62.35 200.16 77.87ZM192.24 303.21C192.07 317.18 190.52 321.33 183.98 325.64C180.37 328.05 179.16 329.61 181.05 329.61C182.6 329.61 185.36 331.16 187.25 333.06C190.18 335.99 190.69 338.75 190.69 350.31C190.69 351.23 190.69 355.83 190.69 364.11L177.96 364.11L165.39 364.11C164.77 358.21 164.43 354.94 164.36 354.28C163.84 348.93 162.29 343.93 161.09 343.24C159.88 342.37 147.83 341.68 134.4 341.68C132.77 341.68 124.63 341.68 109.96 341.68L109.44 352.38L108.93 363.25L95.67 363.77L82.25 364.29L82.25 320.12L82.25 276.12C110.65 276.12 126.43 276.12 129.58 276.12C169.35 276.12 177.96 276.64 182.26 278.88C188.97 282.33 192.41 290.79 192.24 303.21ZM300 295.96L264.37 296.48L228.56 296.82L228.56 302.86L228.56 308.9L263.16 308.9L297.59 308.9L297.07 317.87L296.56 327.02L262.65 327.54L228.56 327.88L228.56 335.65L228.56 343.41L264.71 343.41L300.86 343.41L300.86 353.76L300.86 364.11L251.46 363.77L201.88 363.25L201.37 319.6L201.02 276.12L250.94 276.12L301.03 276.12L300.52 285.95L300 295.96ZM425.66 319.25C425.66 346.69 423.25 353.59 411.72 359.63C405.52 363.08 401.56 363.25 357.32 363.77C354.13 363.82 338.18 364.05 309.47 364.46L309.47 320.12L309.47 275.95C339.32 276.26 355.9 276.43 359.22 276.47C406.73 276.98 409.31 277.16 413.96 280.61C423.94 288.2 425.66 293.55 425.66 319.25ZM550.98 285.09C555.97 291.82 558.38 314.94 556.14 334.78C554.59 348.76 553.73 351.17 549.26 355.83C542.2 362.73 527.22 364.63 486.77 363.77C439.09 362.56 436.85 360.84 435.47 326.16C434.27 294.24 438.4 281.81 451.65 277.85C459.4 275.6 532.9 275.95 540.82 278.36C544.44 279.57 549.08 282.5 550.98 285.09Z" id="auaY0NkVX"></path><path d="M109.79 317.53C123.63 317.53 131.32 317.53 132.86 317.53C160.05 317.53 164.87 316.32 164.87 309.25C164.87 300.97 162.81 300.28 135.27 300.28C133.57 300.28 125.07 300.28 109.79 300.28L109.79 308.9L109.79 317.53Z" id="a1jW14m6D"></path><path d="M335.29 339.96C349.03 339.96 356.66 339.96 358.18 339.96C383.14 339.79 395.19 338.23 397.43 334.61C398.29 333.23 398.98 326.5 398.98 319.6C398.98 300.45 398.64 300.28 363.69 300.28C361.8 300.28 352.33 300.28 335.29 300.28L335.29 320.12L335.29 339.96Z" id="a4bZw9XGJJ"></path><path d="M462.67 319.94C462.67 329.09 463.36 333.58 465.25 335.3C468.7 338.75 490.21 340.65 508.98 339.27C528.43 337.89 530.32 335.82 529.46 317.87C528.6 300.28 528.6 300.28 495.89 300.28C471.79 300.28 469.21 300.62 466.11 303.73C463.36 306.49 462.67 309.42 462.67 319.94Z" id="b1NjPqO7oj"></path></defs><g><g><g><use xlink:href="#cgaySptgH" opacity="1" fill="#ffffff" fill-opacity="1"></use><g><use xlink:href="#cgaySptgH" opacity="1" fill-opacity="0" stroke="#ffffff" stroke-width="1" stroke-opacity="1"></use></g></g><g><use xlink:href="#c223N4QY7" opacity="1" fill="#1064a3" fill-opacity="1"></use><g><use xlink:href="#c223N4QY7" opacity="1" fill-opacity="0" stroke="#000000" stroke-width="1" stroke-opacity="0"></use></g></g><g><use xlink:href="#auaY0NkVX" opacity="1" fill="#26394f" fill-opacity="1"></use><g><use xlink:href="#auaY0NkVX" opacity="1" fill-opacity="0" stroke="#000000" stroke-width="1" stroke-opacity="0"></use></g></g><g><use xlink:href="#a1jW14m6D" opacity="1" fill="#26394f" fill-opacity="1"></use><g><use xlink:href="#a1jW14m6D" opacity="1" fill-opacity="0" stroke="#000000" stroke-width="1" stroke-opacity="0"></use></g></g><g><use xlink:href="#a4bZw9XGJJ" opacity="1" fill="#26394f" fill-opacity="1"></use><g><use xlink:href="#a4bZw9XGJJ" opacity="1" fill-opacity="0" stroke="#000000" stroke-width="1" stroke-opacity="0"></use></g></g><g><use xlink:href="#b1NjPqO7oj" opacity="1" fill="#26394f" fill-opacity="1"></use><g><use xlink:href="#b1NjPqO7oj" opacity="1" fill-opacity="0" stroke="#000000" stroke-width="1" stroke-opacity="0"></use></g></g></g></g></svg>